<svg width="318" height="223" viewBox="0 0 318 223" fill="none" xmlns="http://www.w3.org/2000/svg">
<path fill-rule="evenodd" clip-rule="evenodd" d="M5.20987 14.1459C7.86435 10.1351 12.7977 5.77912 17.1057 3.64703C24.4455 0.0119486 24.8839 0.00174654 158.609 4.63179e-05C291.833 -0.00165391 292.803 0.0238477 300.197 3.60452C304.682 5.77571 309.459 9.95317 312.205 14.1051L316.766 20.9995L317.235 109.333C317.699 196.692 317.665 197.75 314.056 205.209C311.845 209.779 307.693 214.55 303.523 217.314C297.153 221.536 295.078 221.92 275.826 222.439L255.011 223L246.803 207.137L238.593 191.274H158.721H78.8488L70.6389 207.137L62.4308 223L41.6164 222.439C22.3637 221.92 20.2887 221.536 13.9194 217.314C9.749 214.55 5.59734 209.779 3.3864 205.209C-0.223148 197.75 -0.257133 196.692 0.206806 109.333L0.675842 20.9995L5.20987 14.1459ZM68.5018 65.7169C68.7437 65.4484 69.4966 64.5851 70.1746 63.7983C70.8527 63.0115 71.4255 62.3856 71.4473 62.4073C71.4691 62.429 72.362 63.2789 73.4313 64.2962C74.964 65.7543 75.3651 66.2109 75.3267 66.4538C75.2999 66.6232 75.2077 67.4509 75.122 68.2931C75.0362 69.1352 74.9096 70.2627 74.8406 70.7987C74.7716 71.3346 74.677 72.2115 74.6302 72.7474C74.5836 73.2834 74.4575 74.4881 74.3501 75.4247C74.2428 76.3612 74.1169 77.5201 74.0706 77.9999C74.0241 78.4797 73.9265 79.4047 73.8538 80.0554C73.7809 80.7062 73.6839 81.6518 73.638 82.1568L73.5547 83.075L74.2202 83.1664C74.5863 83.2168 74.8949 83.2421 74.9059 83.2226C74.9379 83.166 76.9399 72.0684 77.2351 70.3114C77.3829 69.431 77.536 68.6793 77.5753 68.6411C77.6146 68.6028 77.7492 68.7251 77.8744 68.9128C77.9998 69.1006 78.4926 69.7395 78.9697 70.3327C79.4468 70.926 79.8371 71.4633 79.8371 71.5269C79.8371 71.5904 79.1189 74.2926 78.241 77.5317C77.3631 80.7709 76.6448 83.4689 76.6448 83.5274C76.6448 83.5858 77.1914 83.8117 77.8593 84.0293C78.5273 84.2469 79.7886 84.7881 80.6623 85.2321C81.8391 85.8303 82.2797 85.9945 82.3625 85.8662C82.424 85.771 83.849 83.3964 85.529 80.5891L88.5838 75.4854L89.6582 75.3924C90.2492 75.3412 91.0606 75.2515 91.4613 75.1929C91.862 75.1343 92.19 75.129 92.19 75.1812C92.19 75.2334 91.6266 76.0539 90.9382 77.0046C90.2496 77.9552 89.418 79.1089 89.09 79.5682C88.7621 80.0276 87.4126 81.9001 86.0912 83.7295L83.6885 87.0555L84.2264 87.5147C84.655 87.8807 84.7934 87.9364 84.9069 87.789C84.9852 87.6872 85.246 87.3619 85.4864 87.0661C85.7268 86.7703 87.3686 84.743 89.135 82.561L93.6544 76.9784L94.9623 75.363L96.0398 75.2742C96.6324 75.2253 98.0074 75.1447 99.0951 75.095L101.073 75.0047V77.7231V80.4414L96.1804 84.2431C93.4895 86.3342 90.4759 88.669 89.4835 89.4316C88.4911 90.1943 87.6548 90.838 87.6251 90.8619C87.5953 90.8859 87.7466 91.142 87.9612 91.4313C88.0633 91.5689 88.1598 91.699 88.2347 91.8003C88.3173 91.9117 88.3737 91.9881 88.3827 92.0007C88.3999 92.0247 90.5596 90.6129 93.182 88.8634C95.8044 87.114 98.5968 85.2591 99.3874 84.7416L100.825 83.8007L100.729 84.7469C100.676 85.2672 100.56 86.0909 100.471 86.5772C100.321 87.4007 100.271 87.4827 99.7544 87.7725C99.449 87.9436 97.8563 88.8229 96.2151 89.7265C94.5738 90.63 92.9811 91.5073 92.6758 91.6757C92.3704 91.8443 91.5117 92.3164 90.7673 92.7251C90.023 93.1338 89.4141 93.5212 89.4141 93.5861C89.4141 93.6509 89.6274 94.1287 89.8881 94.6479C90.2648 95.3982 90.9909 97.3284 91.2936 98.3846C91.329 98.5083 91.5036 98.5037 92.0082 98.3662C95.1452 97.5108 103.144 95.3674 103.199 95.3674C103.237 95.3674 103.784 95.7786 104.415 96.281C105.046 96.7835 105.688 97.2832 105.842 97.3914C105.996 97.4997 106.092 97.6187 106.055 97.6558C106.018 97.693 105.397 97.8233 104.675 97.9452C102.884 98.248 101.863 98.428 97.6724 99.1792L97.382 99.2313C92.2816 100.146 91.6908 100.252 91.6778 100.406C91.6761 100.426 91.6844 100.447 91.6937 100.471L91.6977 100.481C91.7395 100.59 91.7746 100.816 91.7757 100.982C91.7801 101.607 91.9168 101.657 93.1742 101.493C93.8161 101.409 95.5905 101.19 97.1173 101.006C100.905 100.549 105.341 100.003 106.747 99.8203L107.91 99.6694L108.621 100.263C109.012 100.59 110.036 101.478 110.898 102.237C112.443 103.599 112.461 103.621 112.216 103.909C112.08 104.07 111.259 104.965 110.391 105.9L108.814 107.598L108.24 107.539C107.352 107.446 105.179 107.212 101.836 106.848C93.8168 105.975 92.2433 105.808 92.0354 105.808C91.8738 105.807 91.7865 105.988 91.7227 106.456C91.6738 106.814 91.6515 107.123 91.6731 107.145C91.6946 107.167 92.1477 107.252 92.6798 107.334C93.2119 107.417 94.3032 107.609 95.1047 107.761C96.9303 108.106 101.341 108.91 103.988 109.38C105.095 109.577 106.048 109.782 106.107 109.835C106.219 109.938 103.705 111.971 103.376 112.044C103.273 112.067 100.548 111.362 97.321 110.478C94.0943 109.593 91.4084 108.87 91.3526 108.87C91.2968 108.87 91.0903 109.387 90.8938 110.018C90.6974 110.65 90.2321 111.791 89.86 112.555L89.1837 113.943L94.3996 116.853C97.2684 118.453 99.6903 119.832 99.7813 119.919C99.9291 120.058 100.457 123.453 100.348 123.563C100.308 123.603 99.0111 122.734 91.5761 117.683C90.1316 116.702 88.782 115.789 88.577 115.655L88.2043 115.41L87.8082 115.983C87.465 116.48 87.44 116.577 87.6208 116.715C90.5465 118.942 92.5545 120.476 94.4107 121.899C95.6703 122.865 97.4971 124.259 98.4705 124.996C99.9361 126.106 100.251 126.409 100.302 126.756C100.336 126.986 100.432 127.958 100.516 128.915C100.599 129.872 100.703 131.037 100.746 131.504L100.823 132.354L99.6643 132.442C99.0268 132.49 97.7939 132.539 96.9243 132.549L95.3436 132.568L93.7921 130.706C92.9387 129.683 91.4641 127.899 90.515 126.742C89.5659 125.586 87.8307 123.472 86.6588 122.045L84.5282 119.451L83.9892 119.833C83.6928 120.043 83.4761 120.287 83.5077 120.375C83.5395 120.463 85.1183 122.718 87.0164 125.386C88.9144 128.054 90.833 130.761 91.2799 131.401L92.0924 132.565L91.5514 132.481C91.2537 132.435 90.7136 132.365 90.3509 132.326C88.7566 132.155 88.3681 132.094 88.2915 132.004C88.2467 131.951 86.8182 129.527 85.1172 126.618C83.4163 123.708 82.014 121.315 82.0013 121.3C81.9885 121.284 81.321 121.602 80.5179 122.005C79.7149 122.409 78.515 122.917 77.8514 123.133C77.0602 123.391 76.6448 123.597 76.6448 123.731C76.6448 123.844 77.3642 126.523 78.2433 129.686L79.8419 135.436L78.6946 136.918L77.5473 138.401L77.1051 136.059C76.2912 131.749 75.5206 127.606 75.2452 126.061C75.2061 125.842 75.1716 125.644 75.1405 125.467C74.9482 124.368 74.8876 124.022 74.7083 123.942C74.6259 123.905 74.5185 123.924 74.3616 123.952C74.3064 123.962 74.2451 123.973 74.1766 123.983C73.8166 124.035 73.5022 124.095 73.4782 124.116C73.454 124.137 73.5673 125.146 73.7298 126.36L74.2864 130.515C74.4301 131.587 74.5862 132.809 74.6335 133.23C74.6809 133.651 74.7433 134.152 74.7723 134.343C74.8012 134.535 74.8943 135.224 74.9793 135.875C75.0642 136.525 75.1572 137.214 75.1859 137.406C75.2148 137.597 75.2792 138.13 75.3293 138.589C75.3793 139.048 75.4476 139.601 75.481 139.817C75.5407 140.202 74.8723 141.074 72.083 144.251L71.6156 144.784L70.4175 143.68C69.7585 143.072 68.8616 142.242 68.4244 141.835L67.6295 141.095L67.7656 139.772C67.8404 139.045 67.929 138.23 67.9624 137.963C67.996 137.695 68.0606 137.037 68.1061 136.501C68.1516 135.965 68.2833 134.65 68.3988 133.578C68.5143 132.506 68.6399 131.253 68.6779 130.794C68.716 130.334 68.8689 128.817 69.0178 127.421L69.0734 126.903C69.2987 124.804 69.3563 124.266 69.1353 124.1C69.0592 124.043 68.9502 124.03 68.8036 124.012C68.7706 124.008 68.7356 124.004 68.6988 123.999C68.3744 123.955 68.0682 123.963 68.0187 124.016C67.969 124.069 67.7622 125.083 67.559 126.27C67.3559 127.456 67.0711 129.116 66.926 129.959C66.7812 130.801 66.534 132.241 66.377 133.16C66.22 134.079 65.9682 135.488 65.8176 136.292C65.667 137.096 65.5295 137.926 65.5121 138.137C65.4948 138.347 65.4401 138.519 65.3907 138.519C65.3413 138.519 64.7962 137.896 64.1796 137.135L63.0584 135.75L63.8897 132.576C64.3471 130.83 65.0254 128.274 65.3972 126.896C65.7689 125.518 66.1108 124.203 66.1568 123.973L66.2407 123.555L64.9817 123.157C64.2892 122.938 63.0567 122.424 62.2428 122.015C61.429 121.606 60.7545 121.284 60.7439 121.3C60.7335 121.315 59.8946 122.769 58.88 124.53C55.9859 129.552 54.6971 131.76 54.5982 131.865C54.5196 131.949 53.8988 132.037 51.4186 132.314C51.1706 132.341 50.9676 132.34 50.9676 132.312C50.9676 132.283 52.8178 129.612 55.0793 126.377C57.3408 123.142 59.2136 120.432 59.2411 120.355C59.2685 120.278 59.0477 120.042 58.7505 119.832L58.2101 119.449L56.9724 121.015C56.2918 121.876 54.147 124.611 52.2062 127.093C50.2654 129.575 48.5525 131.747 48.3998 131.919C48.1614 132.189 47.9362 132.246 46.8037 132.32C46.0785 132.367 44.7668 132.46 43.889 132.526C43.0111 132.592 42.246 132.617 42.1887 132.582C42.1315 132.546 42.0846 131.309 42.0846 129.833V127.149L48.6427 121.893C52.2498 119.003 55.2149 116.565 55.2319 116.477C55.249 116.389 55.0906 116.116 54.8798 115.871L54.4966 115.424L52.32 116.915C49.2647 119.007 48.3111 119.663 46.8037 120.71L45.1588 121.852L43.8543 122.759C42.9572 123.382 42.224 123.816 42.2245 123.723C42.2251 123.631 42.3188 122.806 42.4327 121.89C42.5467 120.974 42.6398 120.215 42.6398 120.202C42.6398 120.19 43.4985 119.689 44.5482 119.09L48.6774 116.733C49.8988 116.036 51.4972 115.126 52.2292 114.712L53.5603 113.959L52.8403 112.462C52.4443 111.638 51.9704 110.462 51.7869 109.847C51.5455 109.038 51.4003 108.75 51.2617 108.802C51.1562 108.842 49.7196 109.247 48.0694 109.702C46.4191 110.157 43.8316 110.872 42.3196 111.292L39.5705 112.056L38.3821 111.124C36.755 109.848 36.5908 109.712 36.6788 109.708C36.9809 109.696 50.9956 107.079 51.0497 107.024C51.0778 106.996 51.0522 106.695 50.993 106.355C50.9856 106.314 50.9795 106.274 50.9737 106.237C50.9512 106.092 50.9342 105.983 50.8748 105.907C50.6934 105.674 50.1166 105.751 47.7785 106.061L47.7782 106.061L47.1507 106.145C45.6239 106.346 43.188 106.664 41.7376 106.85C40.2872 107.037 38.1366 107.316 36.9585 107.471C35.1764 107.706 34.7798 107.722 34.5989 107.57C34.4793 107.468 33.6944 106.796 32.8547 106.074C32.0149 105.353 31.0834 104.563 30.7845 104.318C30.7304 104.273 30.6797 104.235 30.6337 104.2C30.5022 104.099 30.4086 104.028 30.3803 103.936C30.3103 103.71 30.6367 103.362 31.7678 102.154C31.9284 101.982 32.1052 101.794 32.2993 101.585C33.9277 99.8396 33.976 99.8013 34.4565 99.8773C34.7267 99.9201 36.538 100.112 38.4816 100.305C40.425 100.497 42.5773 100.714 43.2644 100.786C43.9514 100.858 44.982 100.957 45.5545 101.006C46.127 101.055 47.345 101.183 48.261 101.291C49.1771 101.399 50.1609 101.488 50.4471 101.489C50.9226 101.492 50.9677 101.459 50.9695 101.109C50.9705 100.899 51.0091 100.586 51.055 100.413C51.12 100.17 51.0807 100.1 50.8797 100.101C50.7372 100.101 49.3402 99.8776 47.7752 99.6037C39.6576 98.1824 36.5093 97.6171 36.4682 97.5734C36.4432 97.5467 37.0649 97.0126 37.8495 96.3863L39.2762 95.2478L40.9927 95.7112C45.3725 96.8939 51.212 98.4298 51.3265 98.4291C51.3963 98.4287 51.6034 97.926 51.7869 97.312C51.9704 96.698 52.4505 95.5094 52.8538 94.6706L53.5872 93.1455L53.2142 92.9268C53.0091 92.8065 50.5939 91.4384 47.8471 89.8866L42.853 87.0651L42.6377 85.2306C42.5193 84.2217 42.4424 83.3962 42.4669 83.3962C42.4914 83.3962 43.1596 83.8503 43.9518 84.4054C45.5549 85.5286 47.1354 86.6154 50.596 88.9737C51.8801 89.849 53.2972 90.8291 53.745 91.1519L54.559 91.7389L54.9842 91.1591C55.218 90.8402 55.3624 90.5381 55.3051 90.4879C55.2477 90.4378 54.3889 89.7735 53.3965 89.0121C51.8488 87.8244 49.907 86.3254 43.6808 81.512L42.5704 80.6536L42.4151 78.8582C42.3297 77.8706 42.2124 76.5216 42.1544 75.8601L42.0489 74.6577L44.2529 74.57C45.465 74.5218 46.6833 74.4592 46.9604 74.4308C47.0013 74.4266 47.0364 74.4196 47.0687 74.4131C47.1012 74.4066 47.1308 74.4007 47.1606 74.3988C47.4767 74.3782 47.8218 74.8028 51.817 79.7192L51.8173 79.7195C52.1945 80.1836 52.6042 80.6878 53.0495 81.2354C57.1157 86.236 58.2221 87.5722 58.2974 87.5722C58.3418 87.5722 58.6152 87.4075 58.9049 87.2063L59.4315 86.8402L58.9693 86.1971C58.7152 85.8432 57.7812 84.5203 56.8939 83.257C56.0065 81.9938 54.2844 79.5508 53.067 77.8282C51.8495 76.1056 50.9154 74.6737 50.9911 74.646C51.2568 74.5494 54.2916 74.9389 54.4903 75.0952C54.6008 75.1821 55.4869 76.6311 56.4596 78.3154C57.4321 79.9998 58.8148 82.3913 59.5322 83.6301L60.8365 85.8825L61.8356 85.3428C62.9836 84.7225 65.0885 83.8838 65.8576 83.7401C66.2575 83.6654 66.3653 83.5879 66.3108 83.4147C66.2714 83.2897 65.9643 82.1852 65.6283 80.9602C63.8072 74.3198 63.1648 71.809 63.2381 71.6174C63.3323 71.3712 65.2982 68.8021 65.4024 68.7893C65.4405 68.7846 65.5801 69.4227 65.7127 70.2073C65.8452 70.9919 66.0768 72.3229 66.2271 73.165C67.2057 78.6444 67.9098 82.5443 67.9791 82.8702C68.0564 83.2329 68.0871 83.2453 68.7089 83.1638C69.0659 83.117 69.3746 83.0656 69.3948 83.0498C69.4149 83.0339 69.3082 82.0562 69.1576 80.877C69.007 79.6978 68.7586 77.6995 68.6058 76.4362C68.4528 75.173 68.262 73.607 68.1817 72.9562C68.1014 72.3055 68.0017 71.4598 67.9602 71.077C67.9187 70.6943 67.7946 69.7592 67.6844 68.9994L67.6559 68.8032L67.6559 68.8031C67.5089 67.7928 67.4421 67.334 67.5759 66.9439C67.6871 66.6194 67.9371 66.3424 68.3952 65.8351L68.5018 65.7169ZM243.241 65.7169C243.483 65.4484 244.236 64.5851 244.914 63.7983C245.592 63.0115 246.165 62.3856 246.186 62.4073C246.208 62.429 247.101 63.2789 248.17 64.2962C249.703 65.7543 250.104 66.2109 250.066 66.4538C250.039 66.6232 249.947 67.4509 249.861 68.2931C249.775 69.1352 249.649 70.2627 249.58 70.7987C249.511 71.3346 249.416 72.2115 249.369 72.7474C249.323 73.2834 249.197 74.4881 249.089 75.4247C248.982 76.3612 248.856 77.5201 248.81 77.9999C248.763 78.4797 248.666 79.4047 248.593 80.0554C248.52 80.7062 248.423 81.6518 248.377 82.1568L248.294 83.075L248.959 83.1664C249.325 83.2168 249.634 83.2421 249.645 83.2226C249.677 83.166 251.679 72.0684 251.974 70.3115C252.122 69.431 252.275 68.6793 252.314 68.6411C252.354 68.6028 252.488 68.7251 252.613 68.9128C252.739 69.1006 253.232 69.7395 253.709 70.3327C254.186 70.926 254.576 71.4633 254.576 71.5269C254.576 71.5904 253.858 74.2926 252.98 77.5317C252.102 80.7709 251.384 83.4689 251.384 83.5274C251.384 83.5858 251.93 83.8117 252.598 84.0293C253.266 84.2469 254.528 84.7881 255.401 85.2321C256.578 85.8303 257.019 85.9945 257.102 85.8662C257.163 85.771 258.588 83.3964 260.268 80.5891L263.323 75.4854L264.397 75.3924C264.988 75.3412 265.8 75.2515 266.2 75.1929C266.601 75.1343 266.929 75.129 266.929 75.1812C266.929 75.2334 266.366 76.0539 265.677 77.0046C264.989 77.9552 264.157 79.1089 263.829 79.5682C263.501 80.0276 262.152 81.9001 260.83 83.7295L258.427 87.0555L258.965 87.5147C259.394 87.8807 259.532 87.9364 259.646 87.789C259.724 87.6872 259.985 87.3619 260.225 87.0661C260.466 86.7703 262.108 84.743 263.874 82.561L268.393 76.9784L269.701 75.363L270.779 75.2742C271.371 75.2253 272.746 75.1447 273.834 75.095L275.812 75.0047V77.7231V80.4414L270.919 84.2431C268.229 86.3342 265.215 88.669 264.222 89.4316C263.23 90.1943 262.394 90.838 262.364 90.8619C262.334 90.8859 262.486 91.142 262.7 91.4313L262.894 91.6921C263.018 91.8605 263.11 91.9843 263.122 92.0007C263.139 92.0247 265.299 90.6129 267.921 88.8634C270.543 87.114 273.336 85.2591 274.126 84.7416L275.564 83.8007L275.468 84.7469C275.415 85.2672 275.299 86.0909 275.21 86.5772C275.06 87.4007 275.01 87.4827 274.493 87.7725C274.188 87.9436 272.595 88.8229 270.954 89.7265L268.561 91.0439L267.415 91.6757C267.109 91.8443 266.251 92.3164 265.506 92.7251C264.762 93.1338 264.153 93.5212 264.153 93.5861C264.153 93.6509 264.366 94.1287 264.627 94.6479C265.004 95.3982 265.73 97.3284 266.033 98.3846C266.068 98.5083 266.243 98.5037 266.747 98.3662C269.884 97.5108 277.883 95.3674 277.938 95.3674C277.976 95.3674 278.523 95.7786 279.154 96.281C279.785 96.7835 280.427 97.2832 280.581 97.3914C280.735 97.4997 280.831 97.6187 280.794 97.6558C280.757 97.693 280.136 97.8233 279.414 97.9452C277.623 98.248 276.602 98.428 272.411 99.1793L272.121 99.2313C267.021 100.146 266.43 100.252 266.417 100.406C266.415 100.426 266.423 100.447 266.433 100.471L266.437 100.481C266.478 100.59 266.514 100.816 266.515 100.982C266.519 101.607 266.656 101.657 267.913 101.493C268.555 101.409 270.329 101.19 271.856 101.006C275.644 100.549 280.08 100.003 281.486 99.8203L282.649 99.6694L283.36 100.263C283.751 100.59 284.775 101.478 285.637 102.237C287.182 103.599 287.2 103.621 286.955 103.909C286.819 104.07 285.998 104.965 285.13 105.9L283.553 107.598L282.979 107.539C282.091 107.446 279.918 107.212 276.575 106.848C268.556 105.975 266.982 105.808 266.774 105.808C266.613 105.807 266.526 105.988 266.462 106.456C266.413 106.814 266.39 107.123 266.412 107.145C266.434 107.167 266.887 107.252 267.419 107.334C267.951 107.417 269.042 107.609 269.844 107.761C271.669 108.106 276.08 108.91 278.727 109.38C279.834 109.577 280.787 109.782 280.846 109.835C280.958 109.938 278.444 111.971 278.115 112.044C278.012 112.067 275.287 111.362 272.06 110.478C268.833 109.593 266.147 108.87 266.092 108.87C266.036 108.87 265.829 109.387 265.633 110.018C265.436 110.65 264.971 111.791 264.599 112.555L263.923 113.943L269.139 116.853C272.007 118.453 274.429 119.832 274.52 119.919C274.668 120.058 275.196 123.453 275.087 123.563C275.047 123.603 273.75 122.734 266.315 117.683C264.871 116.702 263.521 115.789 263.316 115.655L262.943 115.41L262.547 115.983C262.204 116.48 262.179 116.577 262.36 116.715C265.285 118.942 267.293 120.476 269.15 121.899C270.409 122.865 272.236 124.259 273.21 124.996C274.675 126.106 274.99 126.409 275.041 126.756C275.075 126.986 275.171 127.958 275.255 128.915C275.338 129.872 275.442 131.037 275.485 131.504L275.562 132.354L274.403 132.442C273.766 132.49 272.533 132.539 271.663 132.549L270.083 132.568L268.531 130.706C267.678 129.683 266.203 127.899 265.254 126.742C264.305 125.586 262.57 123.472 261.398 122.045L259.267 119.451L258.728 119.833C258.432 120.043 258.215 120.287 258.247 120.375C258.279 120.463 259.857 122.718 261.755 125.386C263.653 128.054 265.572 130.761 266.019 131.401L266.831 132.565L266.29 132.481C265.993 132.435 265.453 132.365 265.09 132.326C263.496 132.155 263.107 132.094 263.03 132.004C262.986 131.951 261.557 129.527 259.856 126.618C258.155 123.708 256.753 121.315 256.74 121.3C256.727 121.284 256.06 121.602 255.257 122.005C254.454 122.409 253.254 122.917 252.59 123.133C251.799 123.391 251.384 123.597 251.384 123.731C251.384 123.844 252.103 126.523 252.982 129.686L254.581 135.436L253.434 136.918L252.286 138.401L251.844 136.059C251.03 131.749 250.26 127.606 249.984 126.061C249.945 125.842 249.911 125.644 249.879 125.467L249.879 125.466C249.687 124.368 249.627 124.022 249.447 123.942C249.365 123.905 249.257 123.924 249.101 123.952C249.045 123.962 248.984 123.973 248.916 123.983C248.556 124.035 248.241 124.095 248.217 124.116C248.193 124.137 248.306 125.146 248.469 126.36L249.025 130.515C249.169 131.587 249.325 132.809 249.373 133.23C249.42 133.651 249.482 134.152 249.511 134.343C249.54 134.535 249.633 135.224 249.718 135.875C249.803 136.525 249.896 137.214 249.925 137.406C249.954 137.597 250.018 138.13 250.068 138.589C250.118 139.048 250.187 139.601 250.22 139.817C250.28 140.202 249.611 141.074 246.822 144.251L246.355 144.784L245.156 143.68C244.497 143.072 243.601 142.242 243.163 141.835L242.368 141.095L242.505 139.772C242.579 139.045 242.668 138.23 242.701 137.963C242.735 137.695 242.8 137.037 242.845 136.501C242.891 135.965 243.022 134.65 243.138 133.578C243.253 132.506 243.379 131.253 243.417 130.794C243.455 130.334 243.608 128.817 243.757 127.421L243.812 126.903V126.902C244.038 124.804 244.095 124.266 243.874 124.1C243.798 124.043 243.689 124.03 243.543 124.012C243.51 124.008 243.475 124.004 243.438 123.999C243.113 123.955 242.807 123.963 242.758 124.016C242.708 124.069 242.501 125.083 242.298 126.27C242.095 127.456 241.81 129.116 241.665 129.959C241.52 130.801 241.273 132.241 241.116 133.16C240.959 134.079 240.707 135.488 240.557 136.292C240.406 137.096 240.268 137.926 240.251 138.137C240.234 138.347 240.179 138.519 240.13 138.519C240.08 138.519 239.535 137.896 238.919 137.135L237.797 135.75L238.629 132.576C239.086 130.83 239.764 128.274 240.136 126.896C240.508 125.518 240.85 124.203 240.896 123.973L240.98 123.555L239.721 123.157C239.028 122.938 237.796 122.424 236.982 122.015C236.168 121.606 235.493 121.284 235.483 121.3C235.473 121.315 234.634 122.769 233.619 124.53C230.725 129.552 229.436 131.76 229.337 131.865C229.259 131.949 228.638 132.037 226.158 132.314C225.91 132.341 225.707 132.34 225.707 132.312C225.707 132.283 227.557 129.612 229.818 126.377C232.08 123.142 233.953 120.432 233.98 120.355C234.008 120.278 233.787 120.042 233.49 119.832L232.949 119.449L231.711 121.015C231.031 121.876 228.886 124.611 226.945 127.093C225.004 129.575 223.292 131.747 223.139 131.919C222.9 132.189 222.675 132.246 221.543 132.32C220.817 132.367 219.506 132.46 218.628 132.526C217.75 132.592 216.985 132.617 216.928 132.582C216.871 132.546 216.824 131.309 216.824 129.833V127.149L223.382 121.893C226.989 119.003 229.954 116.565 229.971 116.477C229.988 116.389 229.83 116.116 229.619 115.871L229.236 115.424L227.059 116.915C224.004 119.007 223.05 119.663 221.543 120.71L219.924 121.834L218.593 122.759C217.696 123.382 216.963 123.816 216.964 123.723C216.964 123.631 217.058 122.806 217.172 121.89C217.286 120.974 217.379 120.215 217.379 120.202C217.379 120.19 218.238 119.689 219.287 119.09L223.416 116.733C224.638 116.036 226.236 115.126 226.968 114.712L228.299 113.959L227.579 112.462C227.183 111.638 226.709 110.462 226.526 109.847C226.285 109.038 226.139 108.75 226.001 108.802C225.895 108.842 224.459 109.247 222.808 109.702C221.158 110.157 218.571 110.872 217.059 111.292L214.309 112.056L213.121 111.124C211.494 109.848 211.33 109.712 211.418 109.708C211.72 109.696 225.735 107.079 225.789 107.024C225.817 106.996 225.791 106.695 225.732 106.355C225.725 106.314 225.718 106.274 225.713 106.237C225.69 106.092 225.673 105.983 225.614 105.907C225.432 105.674 224.856 105.751 222.517 106.061L221.89 106.145C220.363 106.346 217.927 106.664 216.477 106.85C215.026 107.037 212.876 107.316 211.697 107.471C209.915 107.706 209.519 107.722 209.338 107.57C209.218 107.468 208.433 106.796 207.594 106.074C206.754 105.353 205.822 104.563 205.524 104.318C205.469 104.273 205.419 104.235 205.373 104.2C205.241 104.099 205.148 104.028 205.119 103.936C205.049 103.71 205.376 103.362 206.507 102.154C206.667 101.983 206.844 101.794 207.038 101.585C208.667 99.8396 208.715 99.8013 209.196 99.8773C209.466 99.9201 211.277 100.112 213.221 100.305C215.164 100.497 217.316 100.714 218.003 100.786C218.69 100.858 219.721 100.957 220.294 101.006C220.866 101.055 222.084 101.183 223 101.291C223.916 101.399 224.9 101.488 225.186 101.489C225.662 101.492 225.707 101.459 225.708 101.109C225.709 100.899 225.748 100.586 225.794 100.413C225.859 100.17 225.82 100.1 225.619 100.101C225.476 100.101 224.079 99.8776 222.514 99.6037C214.397 98.1824 211.248 97.6171 211.207 97.5734C211.182 97.5467 211.804 97.0126 212.589 96.3863L214.015 95.2478L215.732 95.7112C220.112 96.8939 225.951 98.4298 226.065 98.4291C226.135 98.4287 226.342 97.926 226.526 97.312C226.709 96.698 227.189 95.5094 227.593 94.6706L228.326 93.1455L227.953 92.9268C227.748 92.8065 225.333 91.4384 222.586 89.8866L217.592 87.0651L217.377 85.2306C217.258 84.2217 217.181 83.3962 217.206 83.3962C217.23 83.3962 217.899 83.8503 218.691 84.4054C220.294 85.5286 221.874 86.6154 225.335 88.9737C226.619 89.849 228.036 90.8291 228.484 91.1519L229.298 91.7389L229.723 91.1591C229.957 90.8402 230.101 90.5381 230.044 90.4879C229.987 90.4378 229.128 89.7735 228.135 89.0121C226.588 87.8244 224.646 86.3254 218.42 81.512L217.309 80.6536L217.154 78.8582C217.069 77.8706 216.951 76.5216 216.893 75.8601L216.788 74.6577L218.992 74.57C220.204 74.5218 221.422 74.4592 221.699 74.4308C221.74 74.4266 221.775 74.4196 221.808 74.4131L221.808 74.4131C221.84 74.4066 221.87 74.4007 221.9 74.3988C222.216 74.3782 222.561 74.8028 226.556 79.7191L226.556 79.7197C226.934 80.1838 227.343 80.6879 227.788 81.2354C231.855 86.236 232.961 87.5722 233.036 87.5722C233.081 87.5722 233.354 87.4075 233.644 87.2063L234.17 86.8402L233.708 86.1971C233.454 85.8432 232.52 84.5203 231.633 83.257C230.746 81.9938 229.023 79.5508 227.806 77.8282C226.588 76.1056 225.654 74.6737 225.73 74.646C225.996 74.5494 229.031 74.9389 229.229 75.0952C229.34 75.1821 230.226 76.6311 231.199 78.3154C232.171 79.9998 233.554 82.3913 234.271 83.6301L235.576 85.8825L236.575 85.3428C237.723 84.7225 239.828 83.8838 240.597 83.7401C240.996 83.6654 241.104 83.5879 241.05 83.4147C241.01 83.2897 240.703 82.1852 240.367 80.9602C238.546 74.3198 237.904 71.809 237.977 71.6174C238.071 71.3712 240.037 68.8021 240.141 68.7893C240.18 68.7846 240.319 69.4227 240.452 70.2073C240.584 70.9919 240.816 72.3229 240.966 73.165C241.945 78.6444 242.649 82.5443 242.718 82.8702C242.795 83.2329 242.826 83.2453 243.448 83.1638C243.805 83.117 244.114 83.0656 244.134 83.0498C244.154 83.0339 244.047 82.0562 243.897 80.877C243.746 79.6978 243.498 77.6995 243.345 76.4362C243.192 75.173 243.001 73.607 242.921 72.9562C242.84 72.3055 242.741 71.4598 242.699 71.077C242.658 70.6943 242.534 69.7592 242.423 68.9994L242.395 68.8032C242.248 67.7928 242.181 67.334 242.315 66.9439C242.426 66.6194 242.676 66.3424 243.134 65.8351L243.241 65.7169ZM136.558 92.778C132.14 92.778 128.558 96.3597 128.558 100.778V104.748C128.558 109.166 132.14 112.748 136.558 112.748H180.884C185.303 112.748 188.884 109.166 188.884 104.748V100.778C188.884 96.3597 185.303 92.778 180.884 92.778H136.558Z" fill="#0A0A0B"/>
</svg>
