<svg width="763" height="536" viewBox="0 0 763 536" fill="none" xmlns="http://www.w3.org/2000/svg">
<path fill-rule="evenodd" clip-rule="evenodd" d="M12.5224 34.001C18.9027 24.3606 30.7605 13.8906 41.1152 8.76596C58.7569 0.0287194 59.8107 0.00419797 381.23 0.000111329C701.445 -0.00397531 703.777 0.0573199 721.55 8.66379C732.329 13.8824 743.811 23.9233 750.412 33.9029L761.376 50.4742L762.503 262.792C763.618 472.767 763.536 475.309 754.86 493.237C749.546 504.222 739.567 515.689 729.544 522.334C714.234 532.481 709.247 533.405 662.971 534.651L612.942 536L593.213 497.872L573.48 459.743H381.5H189.52L169.787 497.872L150.058 536L100.029 534.651C53.7532 533.405 48.7658 532.481 33.4564 522.334C23.4326 515.689 13.4537 504.222 8.13951 493.237C-0.536355 475.309 -0.618042 472.767 0.497077 262.792L1.62445 50.4742L12.5224 34.001ZM164.65 157.956C165.232 157.311 167.041 155.236 168.671 153.345C170.301 151.454 171.678 149.949 171.73 150.001C171.782 150.054 173.928 152.096 176.499 154.542C180.183 158.046 181.147 159.144 181.054 159.728C180.99 160.135 180.768 162.124 180.562 164.148C180.356 166.173 180.052 168.883 179.886 170.171C179.72 171.459 179.493 173.567 179.38 174.855C179.268 176.143 178.965 179.039 178.707 181.29C178.449 183.541 178.147 186.326 178.035 187.479C177.923 188.633 177.689 190.856 177.514 192.42C177.339 193.984 177.106 196.257 176.995 197.471L176.795 199.678L178.395 199.898C179.275 200.019 180.016 200.08 180.043 200.033C180.12 199.897 184.932 173.223 185.641 169C185.997 166.883 186.365 165.077 186.459 164.985C186.553 164.893 186.877 165.187 187.178 165.638C187.479 166.089 188.664 167.625 189.811 169.051C190.957 170.477 191.896 171.768 191.896 171.921C191.896 172.074 190.169 178.569 188.059 186.354C185.949 194.14 184.223 200.625 184.223 200.765C184.223 200.906 185.536 201.449 187.142 201.972C188.747 202.495 191.779 203.796 193.879 204.863C196.708 206.301 197.766 206.695 197.966 206.387C198.113 206.158 201.539 200.45 205.577 193.703L212.919 181.436L215.501 181.212C216.922 181.089 218.872 180.874 219.835 180.733C220.798 180.592 221.587 180.579 221.587 180.705C221.587 180.83 220.233 182.802 218.578 185.087C216.923 187.372 214.924 190.145 214.136 191.249C213.348 192.353 210.104 196.854 206.928 201.251L201.153 209.246L202.446 210.349C203.476 211.229 203.808 211.363 204.081 211.008C204.269 210.764 204.896 209.982 205.474 209.271C206.052 208.56 209.998 203.687 214.244 198.443C218.489 193.198 223.378 187.16 225.107 185.024L228.25 181.142L230.84 180.928C232.265 180.811 235.569 180.617 238.184 180.497L242.938 180.28V186.814V193.348L231.178 202.486C224.71 207.512 217.467 213.124 215.081 214.957C212.696 216.79 210.686 218.337 210.615 218.395C210.543 218.452 210.907 219.068 211.422 219.763C211.938 220.458 212.394 221.074 212.436 221.132C212.477 221.189 217.668 217.796 223.971 213.591C230.274 209.386 236.986 204.928 238.886 203.684L242.341 201.422L242.111 203.697C241.984 204.947 241.705 206.927 241.491 208.096C241.13 210.075 241.011 210.272 239.768 210.969C239.034 211.38 235.206 213.494 231.261 215.665C227.316 217.837 223.488 219.946 222.754 220.351C222.02 220.756 219.956 221.891 218.167 222.873C216.378 223.855 214.915 224.786 214.915 224.942C214.915 225.098 215.427 226.246 216.054 227.494C216.959 229.298 218.705 233.937 219.432 236.476C219.517 236.773 219.937 236.762 221.15 236.432C228.69 234.376 247.915 229.224 248.047 229.224C248.139 229.224 249.455 230.212 250.971 231.42C252.487 232.628 254.031 233.829 254.401 234.089C254.771 234.349 255.001 234.635 254.912 234.724C254.823 234.814 253.331 235.127 251.596 235.42C247.291 236.148 244.836 236.58 234.764 238.386L234.065 238.511C221.807 240.709 220.387 240.963 220.356 241.334C220.352 241.383 220.371 241.434 220.394 241.491C220.397 241.499 220.4 241.507 220.403 241.516C220.504 241.778 220.588 242.319 220.591 242.718C220.602 244.222 220.93 244.342 223.952 243.948C225.495 243.746 229.76 243.219 233.43 242.776C242.533 241.678 253.197 240.365 256.575 239.927L259.371 239.564L261.079 240.991C262.019 241.776 264.481 243.911 266.552 245.735C270.267 249.009 270.309 249.062 269.721 249.754C269.394 250.14 267.42 252.293 265.335 254.539L261.543 258.622L260.164 258.478C258.029 258.257 252.807 257.694 244.773 256.819C225.497 254.72 221.715 254.318 221.215 254.318C220.827 254.317 220.617 254.753 220.463 255.877C220.346 256.736 220.292 257.48 220.344 257.532C220.396 257.584 221.485 257.789 222.764 257.988C224.043 258.186 226.666 258.647 228.593 259.012C232.98 259.843 243.581 261.776 249.943 262.905C252.604 263.377 254.897 263.87 255.038 263.999C255.306 264.245 249.263 269.131 248.474 269.306C248.225 269.362 241.676 267.668 233.92 265.542C226.164 263.417 219.708 261.678 219.574 261.678C219.44 261.678 218.944 262.92 218.471 264.438C217.999 265.957 216.881 268.7 215.986 270.536L214.361 273.873L226.898 280.865C233.793 284.711 239.614 288.027 239.833 288.235C240.188 288.57 241.458 296.731 241.196 296.994C241.099 297.091 237.982 295.002 220.111 282.863C216.639 280.504 213.395 278.31 212.903 277.986L212.007 277.398L211.055 278.775C210.23 279.969 210.17 280.204 210.604 280.535C217.636 285.888 222.463 289.574 226.924 292.995C229.952 295.317 234.343 298.666 236.683 300.439C240.205 303.108 240.961 303.834 241.084 304.668C241.166 305.222 241.397 307.557 241.598 309.857C241.799 312.158 242.048 314.959 242.151 316.082L242.338 318.124L239.552 318.336C238.02 318.452 235.056 318.568 232.966 318.593L229.167 318.639L225.438 314.164C223.386 311.704 219.842 307.416 217.561 304.636C215.28 301.856 211.109 296.776 208.292 293.346L203.171 287.111L201.875 288.029C201.163 288.533 200.642 289.119 200.718 289.331C200.795 289.543 204.589 294.963 209.151 301.376C213.714 307.789 218.325 314.295 219.399 315.834L221.352 318.632L220.052 318.43C219.336 318.318 218.038 318.151 217.166 318.057C213.334 317.646 212.4 317.5 212.216 317.282C212.109 317.155 208.675 311.329 204.587 304.337C200.498 297.344 197.128 291.592 197.097 291.555C197.067 291.517 195.462 292.28 193.532 293.251C191.602 294.221 188.718 295.441 187.123 295.961C185.221 296.581 184.223 297.076 184.223 297.399C184.223 297.67 185.952 304.11 188.065 311.711L191.907 325.531L189.149 329.095L186.392 332.658L185.329 327.029C183.373 316.671 181.52 306.713 180.858 302.998C180.765 302.473 180.682 302 180.607 301.573L180.607 301.57C180.144 298.929 179.999 298.098 179.568 297.905C179.37 297.817 179.112 297.863 178.735 297.93C178.602 297.954 178.455 297.98 178.29 298.004C177.425 298.13 176.669 298.274 176.611 298.323C176.553 298.373 176.825 300.8 177.216 303.717C177.607 306.634 178.209 311.129 178.554 313.705C178.899 316.281 179.274 319.217 179.388 320.229C179.502 321.241 179.652 322.446 179.722 322.906C179.791 323.366 180.015 325.022 180.219 326.586C180.423 328.15 180.647 329.807 180.716 330.267C180.785 330.727 180.94 332.006 181.061 333.111C181.181 334.215 181.345 335.543 181.425 336.062C181.569 336.987 179.962 339.083 173.258 346.72L172.134 348L169.255 345.346C167.671 343.887 165.515 341.892 164.464 340.913L162.553 339.133L162.881 335.954C163.06 334.206 163.273 332.249 163.354 331.605C163.434 330.961 163.59 329.38 163.699 328.092C163.808 326.804 164.125 323.642 164.403 321.066C164.68 318.489 164.982 315.478 165.073 314.374C165.165 313.27 165.533 309.622 165.89 306.268C165.937 305.836 165.98 305.428 166.022 305.041L166.024 305.022C166.565 299.976 166.704 298.685 166.173 298.286C165.99 298.149 165.728 298.117 165.376 298.075C165.296 298.065 165.212 298.055 165.123 298.043C164.344 297.938 163.608 297.955 163.489 298.083C163.369 298.21 162.872 300.648 162.384 303.5C161.896 306.353 161.211 310.342 160.863 312.367C160.514 314.391 159.92 317.854 159.543 320.062C159.166 322.27 158.56 325.658 158.198 327.59C157.836 329.522 157.506 331.517 157.464 332.023C157.422 332.529 157.291 332.943 157.172 332.943C157.053 332.943 155.743 331.446 154.261 329.615L151.566 326.288L153.565 318.658C154.664 314.461 156.294 308.318 157.188 305.006C158.081 301.694 158.903 298.532 159.014 297.98L159.215 296.976L156.189 296.019C154.525 295.493 151.562 294.258 149.606 293.274C147.65 292.291 146.029 291.517 146.003 291.555C145.978 291.592 143.962 295.086 141.523 299.318C134.567 311.39 131.469 316.697 131.232 316.95C131.043 317.151 129.55 317.362 123.589 318.027C122.993 318.094 122.505 318.092 122.505 318.022C122.505 317.953 126.952 311.535 132.388 303.759C137.824 295.983 142.325 289.469 142.391 289.283C142.457 289.098 141.926 288.532 141.212 288.026L139.913 287.106L136.938 290.87C135.302 292.94 130.147 299.514 125.482 305.479C120.817 311.445 116.7 316.665 116.333 317.08C115.76 317.729 115.219 317.864 112.497 318.042C110.754 318.156 107.601 318.379 105.491 318.538C103.381 318.697 101.542 318.757 101.404 318.672C101.267 318.586 101.154 315.614 101.154 312.066V305.615L116.917 292.981C125.587 286.033 132.714 280.175 132.755 279.963C132.796 279.751 132.415 279.095 131.908 278.505L130.987 277.432L125.756 281.014C118.412 286.043 116.12 287.62 112.497 290.137C111.486 290.838 109.99 291.878 108.49 292.92L105.408 295.061C103.251 296.559 101.489 297.602 101.49 297.38C101.492 297.158 101.717 295.175 101.991 292.974C102.265 290.773 102.488 288.947 102.488 288.917C102.488 288.887 104.553 287.684 107.076 286.244C109.398 284.918 113.365 282.653 116.271 280.995L117 280.578C119.936 278.902 123.778 276.716 125.537 275.721L128.737 273.91L127.006 270.312C126.055 268.333 124.915 265.505 124.474 264.027C123.894 262.082 123.545 261.389 123.212 261.516C122.958 261.612 119.506 262.585 115.539 263.678C111.572 264.771 105.353 266.491 101.719 267.5L95.1111 269.336L92.2547 267.096C88.3438 264.029 87.9492 263.702 88.1607 263.693C88.8869 263.663 122.572 257.373 122.702 257.242C122.77 257.174 122.708 256.451 122.566 255.635C122.548 255.534 122.534 255.439 122.52 255.35C122.466 255.001 122.425 254.739 122.282 254.556C121.846 253.998 120.46 254.182 114.84 254.928C114.367 254.99 113.865 255.057 113.331 255.128C109.661 255.612 103.806 256.375 100.32 256.823C96.8338 257.272 91.6646 257.943 88.8329 258.316C84.5497 258.88 83.5962 258.92 83.1615 258.553C82.874 258.31 80.9874 256.692 78.9691 254.959C76.9507 253.225 74.7116 251.325 73.9933 250.737C73.8632 250.63 73.7415 250.538 73.6309 250.453C73.3147 250.212 73.0898 250.04 73.0216 249.82C72.8535 249.277 73.6381 248.439 76.3566 245.536L76.3568 245.536C76.7427 245.124 77.1676 244.67 77.6343 244.17C81.5482 239.973 81.6643 239.881 82.8193 240.064C83.4688 240.167 87.8224 240.629 92.4939 241.091C97.1651 241.554 102.338 242.074 103.99 242.247C105.641 242.421 108.118 242.659 109.494 242.777C110.87 242.894 113.798 243.203 116 243.462C118.201 243.72 120.566 243.935 121.254 243.939C122.397 243.945 122.505 243.866 122.51 243.025C122.512 242.519 122.605 241.767 122.715 241.352C122.871 240.768 122.777 240.6 122.294 240.602C121.951 240.603 118.593 240.065 114.832 239.406C95.3206 235.99 87.7533 234.631 87.6546 234.526C87.5945 234.462 89.0888 233.178 90.9746 231.673L94.4038 228.936L98.5295 230.05C109.057 232.893 123.092 236.585 123.368 236.583C123.536 236.582 124.033 235.374 124.474 233.898C124.915 232.422 126.069 229.565 127.039 227.549L128.802 223.883L127.905 223.358C127.412 223.069 121.607 219.78 115.005 216.05L103.001 209.269L102.483 204.859C102.199 202.434 102.014 200.45 102.073 200.45C102.132 200.45 103.738 201.542 105.642 202.876C109.495 205.576 113.294 208.188 121.612 213.856C124.698 215.96 128.105 218.316 129.181 219.091L131.137 220.502L132.159 219.109C132.721 218.342 133.068 217.616 132.931 217.496C132.793 217.375 130.728 215.778 128.343 213.948C124.623 211.094 119.956 207.491 104.991 195.921L102.322 193.858L101.948 189.543C101.743 187.169 101.461 183.926 101.322 182.336L101.068 179.446L106.366 179.235C109.279 179.12 112.207 178.969 112.873 178.901C112.972 178.891 113.056 178.874 113.134 178.858L113.134 178.858C113.184 178.848 113.23 178.839 113.277 178.832C113.303 178.829 113.329 178.826 113.355 178.824C114.114 178.774 114.944 179.795 124.547 191.612L124.547 191.613C125.454 192.728 126.439 193.94 127.509 195.256C137.283 207.276 139.942 210.487 140.123 210.487C140.23 210.487 140.887 210.092 141.583 209.608L142.849 208.728L141.738 207.182C141.127 206.332 138.882 203.152 136.749 200.116C134.617 197.079 130.477 191.207 127.551 187.067C124.625 182.927 122.38 179.485 122.562 179.418C123.2 179.186 130.495 180.122 130.972 180.498C131.238 180.707 133.368 184.19 135.706 188.238C138.043 192.286 141.367 198.035 143.091 201.012L146.226 206.426L148.627 205.129C151.386 203.638 156.446 201.622 158.295 201.277C159.256 201.097 159.515 200.911 159.384 200.495C159.289 200.194 158.551 197.539 157.743 194.595C153.366 178.634 151.822 172.599 151.998 172.139C152.225 171.547 156.95 165.372 157.2 165.341C157.292 165.33 157.628 166.863 157.946 168.749C158.265 170.635 158.821 173.834 159.183 175.859C161.535 189.029 163.227 198.402 163.394 199.186C163.58 200.058 163.653 200.087 165.148 199.891C166.006 199.779 166.748 199.655 166.797 199.617C166.845 199.579 166.588 197.229 166.226 194.395C165.864 191.561 165.267 186.757 164.9 183.721C164.532 180.685 164.074 176.921 163.881 175.357C163.688 173.793 163.448 171.76 163.348 170.84C163.249 169.92 162.95 167.672 162.685 165.846L162.617 165.374L162.617 165.374C162.264 162.946 162.103 161.843 162.424 160.906C162.692 160.126 163.293 159.46 164.394 158.24L164.65 157.956ZM584.65 157.956C585.232 157.311 587.041 155.236 588.671 153.345C590.301 151.454 591.678 149.949 591.73 150.001C591.782 150.054 593.928 152.096 596.499 154.542C600.183 158.046 601.147 159.144 601.054 159.728C600.99 160.135 600.768 162.124 600.562 164.148C600.356 166.173 600.052 168.883 599.886 170.171C599.72 171.459 599.493 173.567 599.38 174.855C599.268 176.143 598.965 179.039 598.707 181.29C598.449 183.541 598.147 186.326 598.035 187.479C597.923 188.633 597.689 190.856 597.514 192.42C597.339 193.984 597.106 196.257 596.995 197.471L596.795 199.678L598.395 199.898C599.275 200.019 600.016 200.08 600.043 200.033C600.12 199.897 604.932 173.223 605.641 169C605.997 166.883 606.365 165.077 606.459 164.985C606.553 164.893 606.877 165.187 607.178 165.638C607.479 166.089 608.664 167.625 609.81 169.051C610.957 170.477 611.896 171.768 611.896 171.921C611.896 172.074 610.169 178.569 608.059 186.354C605.949 194.14 604.223 200.625 604.223 200.765C604.223 200.906 605.536 201.449 607.142 201.972C608.747 202.495 611.779 203.796 613.879 204.863C616.708 206.301 617.766 206.695 617.966 206.387C618.113 206.158 621.539 200.45 625.577 193.703L632.919 181.436L635.501 181.212C636.922 181.089 638.872 180.874 639.835 180.733C640.798 180.592 641.587 180.579 641.587 180.705C641.587 180.83 640.233 182.802 638.578 185.087C636.923 187.372 634.924 190.145 634.136 191.249C633.348 192.353 630.104 196.854 626.928 201.251L621.153 209.246L622.446 210.349C623.476 211.229 623.808 211.363 624.081 211.008C624.269 210.764 624.896 209.982 625.474 209.271C626.052 208.56 629.998 203.687 634.244 198.443L640.049 191.271L645.107 185.024L648.25 181.142L650.84 180.928C652.265 180.811 655.569 180.617 658.184 180.497L662.938 180.28V186.814V193.348L651.178 202.486C644.71 207.512 637.467 213.124 635.081 214.957C632.696 216.79 630.686 218.337 630.615 218.395C630.543 218.452 630.907 219.068 631.422 219.763C631.938 220.458 632.394 221.074 632.435 221.132C632.477 221.189 637.668 217.796 643.971 213.591C650.274 209.386 656.986 204.928 658.886 203.684L662.341 201.422L662.111 203.697C661.984 204.947 661.705 206.927 661.491 208.096C661.13 210.075 661.011 210.272 659.768 210.969C659.034 211.38 655.206 213.494 651.261 215.665C647.316 217.837 643.488 219.946 642.754 220.351C642.02 220.756 639.956 221.891 638.167 222.873C636.378 223.855 634.915 224.786 634.915 224.942C634.915 225.098 635.427 226.246 636.054 227.494C636.959 229.298 638.705 233.937 639.432 236.476C639.517 236.773 639.937 236.762 641.15 236.432C648.69 234.376 667.915 229.224 668.047 229.224C668.139 229.224 669.455 230.212 670.971 231.42C672.487 232.628 674.031 233.829 674.401 234.089C674.771 234.349 675.001 234.635 674.912 234.724C674.823 234.814 673.331 235.127 671.596 235.42C667.291 236.148 664.836 236.58 654.764 238.386L654.064 238.512L654.063 238.512C641.807 240.709 640.387 240.963 640.356 241.334C640.352 241.383 640.371 241.433 640.394 241.491L640.403 241.516C640.504 241.778 640.588 242.319 640.591 242.718C640.602 244.222 640.93 244.342 643.952 243.948C645.495 243.746 649.76 243.219 653.43 242.776C662.533 241.678 673.197 240.365 676.575 239.927L679.371 239.564L681.079 240.991C682.019 241.776 684.481 243.911 686.552 245.735C690.267 249.009 690.309 249.062 689.721 249.754C689.394 250.14 687.42 252.293 685.335 254.539L681.543 258.622L680.164 258.478C678.029 258.257 672.807 257.694 664.773 256.819C645.497 254.72 641.715 254.318 641.215 254.318C640.827 254.317 640.617 254.753 640.463 255.877C640.346 256.736 640.292 257.48 640.344 257.532C640.396 257.584 641.485 257.789 642.764 257.988C644.043 258.186 646.666 258.647 648.593 259.012C652.98 259.843 663.581 261.776 669.943 262.905C672.604 263.377 674.897 263.87 675.038 263.999C675.306 264.245 669.263 269.131 668.474 269.306C668.225 269.362 661.676 267.668 653.92 265.542C646.164 263.417 639.708 261.678 639.574 261.678C639.44 261.678 638.944 262.92 638.471 264.438C637.999 265.957 636.881 268.7 635.986 270.536L634.361 273.873L646.898 280.865C653.793 284.711 659.614 288.027 659.833 288.235C660.188 288.57 661.458 296.731 661.196 296.994C661.099 297.091 657.982 295.002 640.111 282.863C636.639 280.504 633.395 278.31 632.903 277.986L632.007 277.398L631.055 278.775C630.23 279.969 630.17 280.204 630.604 280.535C637.636 285.888 642.463 289.574 646.924 292.995C649.952 295.317 654.343 298.666 656.682 300.439C660.205 303.108 660.961 303.834 661.084 304.668C661.166 305.222 661.397 307.557 661.598 309.857C661.799 312.158 662.048 314.959 662.151 316.082L662.338 318.124L659.552 318.336C658.02 318.452 655.056 318.568 652.966 318.593L649.167 318.639L645.438 314.164C643.386 311.704 639.842 307.416 637.561 304.636C635.28 301.856 631.109 296.776 628.292 293.346L623.171 287.111L621.875 288.029C621.163 288.533 620.642 289.119 620.718 289.331C620.795 289.543 624.589 294.963 629.151 301.376C633.714 307.789 638.325 314.295 639.399 315.834L641.352 318.632L640.052 318.43C639.336 318.318 638.038 318.151 637.166 318.057C633.334 317.646 632.4 317.5 632.216 317.282C632.109 317.155 628.675 311.329 624.587 304.337C620.498 297.344 617.128 291.592 617.097 291.555C617.067 291.517 615.462 292.28 613.532 293.251C611.602 294.221 608.718 295.441 607.123 295.961C605.221 296.581 604.223 297.076 604.223 297.399C604.223 297.67 605.952 304.11 608.065 311.711L611.907 325.531L609.149 329.095L606.392 332.658L605.329 327.029C603.373 316.671 601.52 306.713 600.858 302.998C600.805 302.696 600.754 302.411 600.707 302.142L600.607 301.57C600.144 298.929 599.999 298.098 599.568 297.905C599.37 297.817 599.112 297.863 598.735 297.93C598.602 297.954 598.455 297.98 598.29 298.004C597.425 298.13 596.669 298.274 596.611 298.323C596.553 298.373 596.825 300.8 597.216 303.717L597.859 308.52L598.554 313.705C598.899 316.281 599.274 319.217 599.388 320.229C599.502 321.241 599.652 322.446 599.722 322.906C599.791 323.366 600.015 325.022 600.219 326.586C600.423 328.15 600.647 329.807 600.716 330.267C600.785 330.727 600.94 332.006 601.061 333.111C601.181 334.215 601.345 335.543 601.425 336.062C601.569 336.987 599.962 339.083 593.258 346.72L592.134 348L589.255 345.346C587.671 343.887 585.515 341.892 584.464 340.913L582.553 339.133L582.881 335.954C583.06 334.206 583.273 332.249 583.354 331.605C583.434 330.961 583.59 329.38 583.699 328.092C583.808 326.804 584.125 323.642 584.403 321.066C584.68 318.489 584.982 315.478 585.073 314.374C585.165 313.27 585.532 309.622 585.89 306.268C585.937 305.832 585.981 305.42 586.023 305.031L586.024 305.021C586.565 299.976 586.704 298.685 586.173 298.286C585.99 298.149 585.728 298.117 585.376 298.075C585.296 298.065 585.212 298.055 585.123 298.043C584.344 297.938 583.608 297.955 583.489 298.083C583.369 298.21 582.872 300.648 582.384 303.5C581.896 306.353 581.211 310.342 580.863 312.367C580.514 314.391 579.92 317.854 579.543 320.062C579.166 322.27 578.56 325.658 578.198 327.59C577.836 329.522 577.506 331.517 577.464 332.023C577.422 332.529 577.291 332.943 577.172 332.943C577.054 332.943 575.743 331.446 574.261 329.615L571.566 326.288L573.565 318.658C574.664 314.461 576.294 308.318 577.188 305.006C578.081 301.694 578.903 298.532 579.014 297.98L579.215 296.976L576.189 296.019C574.525 295.493 571.562 294.258 569.606 293.274C567.65 292.291 566.029 291.517 566.003 291.555C565.978 291.592 563.962 295.086 561.523 299.318C554.567 311.39 551.469 316.697 551.232 316.95C551.043 317.151 549.55 317.362 543.589 318.027C542.993 318.094 542.505 318.092 542.505 318.022C542.505 317.953 546.952 311.535 552.388 303.759C557.824 295.983 562.325 289.469 562.391 289.283C562.457 289.098 561.926 288.532 561.212 288.026L559.913 287.106L556.938 290.87C555.302 292.94 550.147 299.514 545.482 305.479C540.817 311.445 536.7 316.665 536.333 317.08C535.76 317.729 535.219 317.864 532.497 318.042C530.754 318.156 527.601 318.379 525.491 318.538C523.381 318.697 521.542 318.757 521.404 318.672C521.267 318.586 521.154 315.614 521.154 312.066V305.615L536.917 292.981C545.587 286.033 552.714 280.175 552.755 279.963C552.796 279.751 552.415 279.095 551.908 278.505L550.987 277.432L545.756 281.014C538.412 286.043 536.12 287.62 532.497 290.137C531.601 290.759 530.323 291.647 528.999 292.566L525.408 295.061C523.251 296.559 521.489 297.602 521.49 297.38C521.492 297.158 521.717 295.175 521.991 292.974C522.265 290.773 522.488 288.947 522.488 288.917C522.488 288.887 524.553 287.684 527.076 286.244C529.404 284.915 533.387 282.641 536.295 280.981L537 280.578C539.936 278.902 543.778 276.716 545.537 275.721L548.737 273.91L547.006 270.312C546.055 268.333 544.915 265.505 544.474 264.027C543.894 262.082 543.545 261.389 543.212 261.516C542.958 261.612 539.506 262.585 535.539 263.678C531.572 264.771 525.353 266.491 521.719 267.5L515.111 269.336L512.255 267.096C508.344 264.029 507.949 263.702 508.161 263.693C508.887 263.663 542.572 257.373 542.703 257.242C542.77 257.174 542.708 256.451 542.566 255.635C542.548 255.534 542.534 255.439 542.52 255.35C542.466 255.001 542.425 254.739 542.282 254.556C541.846 253.998 540.46 254.182 534.84 254.928C534.367 254.99 533.865 255.057 533.331 255.128C529.661 255.612 523.806 256.375 520.32 256.823C516.834 257.272 511.665 257.943 508.833 258.316C504.55 258.88 503.596 258.92 503.162 258.553C502.874 258.31 500.987 256.692 498.969 254.959C496.951 253.225 494.712 251.325 493.993 250.737C493.863 250.63 493.741 250.537 493.631 250.453C493.315 250.212 493.09 250.04 493.022 249.82C492.854 249.277 493.638 248.439 496.356 245.536L496.357 245.536L496.379 245.512C496.759 245.106 497.177 244.66 497.634 244.17C501.548 239.973 501.664 239.881 502.819 240.064C503.469 240.167 507.822 240.629 512.494 241.091C517.165 241.554 522.338 242.074 523.99 242.247C525.641 242.421 528.118 242.659 529.494 242.777C530.87 242.894 533.798 243.203 536 243.462C538.201 243.72 540.566 243.935 541.254 243.939C542.397 243.945 542.505 243.866 542.51 243.025C542.512 242.519 542.605 241.767 542.715 241.352C542.871 240.768 542.777 240.6 542.294 240.602C541.951 240.603 538.593 240.065 534.832 239.406C515.321 235.99 507.753 234.631 507.655 234.526C507.595 234.462 509.089 233.178 510.975 231.673L514.404 228.936L518.53 230.05C529.057 232.893 543.092 236.585 543.368 236.583C543.536 236.582 544.033 235.374 544.474 233.898C544.915 232.422 546.069 229.565 547.039 227.549L548.802 223.883L547.905 223.358C547.412 223.069 541.607 219.78 535.005 216.05L523.001 209.269L522.483 204.859C522.199 202.434 522.014 200.45 522.073 200.45C522.132 200.45 523.738 201.542 525.642 202.876C529.495 205.576 533.294 208.188 541.612 213.856C544.698 215.96 548.105 218.316 549.181 219.091L551.137 220.502L552.159 219.109C552.721 218.342 553.068 217.616 552.931 217.496C552.793 217.375 550.728 215.778 548.343 213.948C544.623 211.094 539.956 207.491 524.991 195.921L522.322 193.858L521.948 189.543C521.743 187.169 521.461 183.926 521.322 182.336L521.068 179.446L526.366 179.235C529.279 179.12 532.208 178.969 532.873 178.901C532.972 178.891 533.056 178.874 533.134 178.858C533.212 178.843 533.283 178.829 533.355 178.824C534.114 178.774 534.944 179.795 544.549 191.614L544.625 191.708C545.51 192.797 546.469 193.978 547.509 195.256C557.283 207.276 559.942 210.487 560.123 210.487C560.23 210.487 560.887 210.092 561.583 209.608L562.849 208.728L561.738 207.182C561.127 206.332 558.882 203.152 556.749 200.116C554.617 197.079 550.477 191.207 547.551 187.067C544.625 182.927 542.38 179.485 542.562 179.418C543.2 179.186 550.495 180.122 550.972 180.498C551.238 180.707 553.368 184.19 555.706 188.238C558.043 192.286 561.367 198.035 563.091 201.012L566.226 206.426L568.627 205.129C571.386 203.638 576.446 201.622 578.295 201.277C579.256 201.097 579.515 200.911 579.384 200.495C579.289 200.194 578.551 197.539 577.743 194.595C573.366 178.634 571.822 172.599 571.998 172.139C572.225 171.547 576.95 165.372 577.2 165.341C577.292 165.33 577.628 166.863 577.946 168.749C578.265 170.635 578.821 173.834 579.183 175.859C581.535 189.029 583.227 198.402 583.394 199.186C583.58 200.058 583.653 200.087 585.148 199.891C586.006 199.779 586.748 199.655 586.797 199.617C586.845 199.579 586.588 197.229 586.226 194.395C585.864 191.561 585.267 186.757 584.9 183.721C584.532 180.685 584.074 176.921 583.881 175.357C583.688 173.793 583.448 171.76 583.348 170.84C583.249 169.92 582.95 167.672 582.685 165.846L582.617 165.374C582.264 162.946 582.103 161.843 582.424 160.906C582.692 160.126 583.293 159.46 584.393 158.241L584.394 158.241L584.65 157.956ZM317 223C312.582 223 309 226.582 309 231V263C309 267.418 312.582 271 317 271H446C450.418 271 454 267.418 454 263V231C454 226.582 450.418 223 446 223H317Z" fill="#0A0A0B"/>
</svg>
